<svg width="429" height="354" viewBox="0 0 429 354" fill="none" xmlns="http://www.w3.org/2000/svg">
<path d="M37.0399 0.0790515C38.213 0.0884778 39.3861 0.0979041 40.5948 0.107616C83.9234 0.836976 124.524 13.6196 156.477 43.4541C158.44 45.1665 160.414 46.8649 162.395 48.5556C164.477 50.4541 164.477 50.4541 165.915 52.2578C169.163 56.1751 169.163 56.1751 173.816 57.7534C176.497 57.5011 179.035 57.0338 181.665 56.4541C183.553 56.1122 185.441 55.7724 187.329 55.4345C188.226 55.261 189.124 55.0874 190.049 54.9086C194.84 54.0118 199.613 53.6525 204.477 53.4541C205.144 53.4268 205.811 53.3996 206.497 53.3715C219.421 52.9224 231.993 54.0811 244.809 55.7001C245.799 55.8213 246.789 55.9425 247.809 56.0673C250.477 56.4541 250.477 56.4541 254.348 57.4189C257.727 57.7806 257.727 57.7806 260.618 55.0244C261.673 53.8933 262.709 52.7436 263.727 51.5791C264.863 50.3644 266.002 49.1535 267.145 47.9462C267.707 47.3478 268.268 46.7493 268.846 46.1328C272.705 42.1622 277.107 38.8349 281.477 35.4541C282.398 34.7167 283.318 33.9794 284.266 33.2197C314.901 9.27366 353.194 0.568732 391.415 0.0790515C392.528 0.0530286 393.64 0.0270056 394.787 0.000194101C404.609 -0.0210048 414.751 1.68688 422.079 8.74702C428.991 17.1848 429.263 27.1404 428.275 37.5942C426.568 52.7195 423.308 67.5826 420.094 82.444C416.295 100.988 419.763 118.695 424.7 136.668C430.816 159.21 429.726 182.624 418.477 203.454C408.772 212.468 395.844 215.012 382.977 214.829C381.937 214.82 380.897 214.81 379.825 214.8C355.85 214.34 333.131 207.602 312.477 195.454C321.89 213.859 334.367 229.459 348.477 244.454C349.094 245.113 349.71 245.771 350.345 246.45C357.603 253.969 366.056 260.301 374.477 266.454C373.862 269.933 372.533 272.001 370.372 274.77C369.725 275.607 369.079 276.444 368.413 277.306C367.712 278.2 367.012 279.095 366.29 280.017C364.816 281.923 363.343 283.831 361.872 285.739C361.13 286.7 360.388 287.66 359.624 288.65C356.517 292.709 353.493 296.826 350.477 300.954C345.553 307.68 340.544 314.335 335.477 320.954C330.123 327.951 324.826 334.985 319.602 342.079C319.013 342.879 318.424 343.679 317.817 344.503C315.648 347.457 313.511 350.404 311.477 353.454C310.817 353.454 310.157 353.454 309.477 353.454C308.427 352.048 308.427 352.048 307.165 349.954C304.165 345.293 300.803 341.042 297.29 336.767C296.723 336.076 296.156 335.385 295.572 334.673C294.423 333.272 293.274 331.872 292.125 330.472C287.822 325.201 283.638 319.838 279.477 314.454C279.01 313.852 278.543 313.25 278.061 312.629C248.326 274.173 213.521 220.314 215.477 169.454C214.817 169.454 214.157 169.454 213.477 169.454C213.52 170.536 213.562 171.617 213.606 172.731C213.521 228.127 174.879 283.381 141.29 324.349C129.299 338.165 129.299 338.165 119.477 353.454C118.817 353.454 118.157 353.454 117.477 353.454C116.219 352.043 116.219 352.043 114.782 350.036C114.239 349.287 113.697 348.538 113.138 347.767C112.548 346.942 111.959 346.117 111.352 345.267C110.081 343.511 108.807 341.758 107.532 340.005C106.534 338.631 106.534 338.631 105.515 337.23C102.231 332.757 98.8547 328.357 95.4774 323.954C89.8312 316.579 84.2787 309.144 78.7906 301.651C72.3331 292.856 65.7012 284.194 59.0645 275.534C58.5408 274.848 58.017 274.161 57.4774 273.454C56.9153 272.746 56.3531 272.037 55.774 271.307C54.4774 269.454 54.4774 269.454 54.4305 267.485C55.989 264.461 58.5142 262.873 61.2274 260.954C68.4724 255.614 74.979 249.669 81.4774 243.454C82.1554 242.817 82.8335 242.18 83.5321 241.524C96.9605 228.591 107.182 212.485 116.477 196.454C113.487 197.451 110.759 198.751 107.932 200.133C83.8353 211.84 53.2198 219.856 26.5399 212.829C19.7469 210.463 12.8443 207.581 9.22737 201.017C8.59863 199.514 8.02296 197.989 7.47737 196.454C6.84702 194.723 6.84702 194.723 6.20393 192.958C-1.23017 171.947 -0.275087 153.352 5.47737 132.017C7.86306 123.157 9.78453 114.632 10.4774 105.454C10.6185 103.898 10.6185 103.898 10.7625 102.31C11.2878 91.1712 8.4807 80.4546 6.15315 69.6328C5.11971 64.7717 4.16538 59.8968 3.22737 55.0166C3.06462 54.196 2.90188 53.3754 2.7342 52.53C0.235926 39.5784 -2.64646 23.5301 4.57893 11.6416C12.6858 1.1811 24.7175 -0.0761328 37.0399 0.0790515Z" fill="white"/>
<path d="M391.414 0.0790515C392.527 0.0530286 393.639 0.0270056 394.786 0.000194101C404.608 -0.0210048 414.75 1.68688 422.078 8.74702C428.99 17.1848 429.262 27.1404 428.274 37.5942C426.567 52.7195 423.307 67.5826 420.093 82.444C416.294 100.988 419.762 118.695 424.698 136.668C430.815 159.21 429.725 182.624 418.476 203.454C408.77 212.468 395.843 215.012 382.976 214.829C381.936 214.82 380.896 214.81 379.824 214.8C344.369 214.12 316.294 199.435 288.972 177.915C280.692 171.397 272.368 165.166 263.515 159.442C262.011 158.458 262.011 158.458 260.476 157.454C259.41 156.93 259.41 156.93 258.322 156.395C255.338 153.257 255.892 149.521 255.908 145.415C255.896 144.49 255.884 143.564 255.872 142.61C255.841 139.54 255.841 136.47 255.847 133.399C255.846 132.348 255.844 131.297 255.843 130.214C255.835 124.642 255.852 119.071 255.888 113.499C255.92 107.767 255.875 102.039 255.81 96.308C255.774 91.8822 255.797 87.458 255.835 83.0323C255.843 80.9218 255.83 78.8111 255.794 76.7009C255.521 58.4973 255.521 58.4973 261.969 51.5213C264.668 48.9639 267.515 46.6952 270.476 44.4541C272.334 42.8749 274.189 41.2924 276.039 39.7041C277.844 38.2784 279.657 36.8617 281.476 35.4541C282.397 34.7167 283.317 33.9794 284.265 33.2197C314.9 9.27366 353.193 0.568732 391.414 0.0790515Z" fill="white"/>
<path d="M238.289 54.8289C239.392 54.9549 240.495 55.0809 241.631 55.2107C247.213 55.8987 251.992 56.8868 257.477 58.4539C257.477 90.1339 257.477 121.814 257.477 154.454C237.846 159.362 237.846 159.362 228.477 160.454C227.342 160.589 226.208 160.725 225.039 160.864C207.422 162.516 188.267 160.051 171.477 154.454C171.477 122.774 171.477 91.0939 171.477 58.4539C193.602 52.9226 215.705 52.2459 238.289 54.8289Z" fill="#DEDEDE"/>
<path d="M257.477 149.454C267.675 149.407 277.873 149.372 288.072 149.35C292.81 149.34 297.548 149.326 302.285 149.303C385.863 148.909 385.863 148.909 409.395 171.122C415.718 178.204 417.963 185.674 418.664 194.954C418.731 195.732 418.798 196.509 418.867 197.311C418.957 199.548 418.957 199.548 418.477 203.454C416.191 205.856 416.191 205.856 413.477 207.454C412.866 207.837 412.255 208.22 411.625 208.614C402.405 213.305 393.263 214.975 382.977 214.829C381.936 214.819 380.896 214.81 379.824 214.8C344.369 214.119 316.294 199.435 288.973 177.915C280.692 171.397 272.368 165.166 263.516 159.442C261.091 157.856 258.765 156.229 256.477 154.454C256.807 152.804 257.137 151.154 257.477 149.454Z" fill="#DEDEDE"/>
<path d="M134.97 149.386C139.1 149.396 143.231 149.401 147.362 149.406C155.401 149.416 163.439 149.433 171.477 149.454C171.807 151.434 172.137 153.414 172.477 155.454C171.557 155.977 170.637 156.499 169.688 157.037C160.931 162.094 153.012 167.703 145.177 174.081C140.358 177.974 135.409 181.706 130.477 185.454C129.565 186.154 128.652 186.854 127.712 187.576C100.646 207.875 66.0639 218.524 32.1468 214.154C24.4484 212.703 17.4144 209.611 11.4774 204.454C8.52823 198.556 10.68 188.083 12.5321 181.978C18.178 169.633 28.2867 163.006 40.5438 158.173C55.3823 152.661 71.5764 150.537 87.325 149.876C88.2875 149.836 89.2499 149.795 90.2414 149.753C105.142 149.201 120.061 149.344 134.97 149.386Z" fill="#DEDEDE"/>
</svg>
