<svg width="74" height="76" viewBox="0 0 74 76" fill="none" xmlns="http://www.w3.org/2000/svg">
<path d="M21.5726 72.61H11.5034C6.86879 72.61 3.11243 68.3911 3.11243 63.1857V34.7087C3.11243 30.8699 4.67595 27.2416 7.35546 24.8572L27.9973 6.50504C33.0822 1.98139 40.2705 1.98139 45.3554 6.50504L65.9972 24.8572C68.6767 27.2416 70.2402 30.8699 70.2402 34.7087V63.1857C70.2402 68.3911 66.4839 72.61 61.8493 72.61H51.7801C47.1455 72.61 43.3891 68.3911 43.3891 63.1857V48.9394C43.3891 46.9948 42.7038 46.7781 41.5011 45.3739C38.8608 42.2827 34.4583 42.2827 31.818 45.3739C30.6181 46.7781 29.9635 46.9948 29.9635 48.9394V63.1857C29.9635 68.3911 26.2072 72.61 21.5726 72.61Z" stroke="white" stroke-width="6.22484" stroke-miterlimit="2" stroke-linejoin="round"/>
</svg>
