<svg width="56" height="50" viewBox="0 0 56 50" fill="none" xmlns="http://www.w3.org/2000/svg">
<path d="M45.1338 0C52.9112 7.30394e-05 57.7114 8.48829 53.7031 15.1533L35.7969 44.9277C31.1324 52.6834 19.3858 50.7477 17.457 41.9053L14.9922 30.6045C14.8691 30.0402 14.6964 29.4907 14.4805 28.9609L14.5 29L37.7822 15.8867C39.0594 15.1673 39.494 13.5375 38.7451 12.2773C38.0023 11.0276 36.3818 10.6248 35.1406 11.3818L12.0752 25.4541C12.0435 25.4243 12.0126 25.3937 11.9805 25.3643L3.26172 17.3701C-3.45955 11.2071 0.900395 0.000306503 10.0195 0H45.1338ZM13.7998 27.5977C14.0609 28.0336 14.2882 28.4893 14.4805 28.9609L13.7998 27.5977ZM13.1953 26.6953C13.397 26.8971 13.5657 27.1296 13.6934 27.3848L13.7998 27.5977C13.6075 27.2766 13.3965 26.967 13.1689 26.6689L13.1953 26.6953ZM12.0752 25.4541C12.4745 25.8299 12.8391 26.2369 13.1689 26.6689L12.001 25.5L12.0752 25.4541Z" fill="white"/>
</svg>
