<svg width="173" height="59" viewBox="0 0 173 59" fill="none" xmlns="http://www.w3.org/2000/svg">
<path d="M160.893 58.3433C157.725 58.3433 155.175 57.5379 153.242 55.9272C151.309 54.3701 150.342 52.1956 150.342 49.4036C150.342 47.3633 150.96 45.5109 152.195 43.8464C153.483 42.2356 155.255 40.6517 157.51 39.0947C156.92 39.4168 156.114 39.7121 155.094 39.9806C154.128 40.3027 153.269 40.4638 152.517 40.4638C149.081 40.4638 146.289 39.2826 144.141 36.9201C142.047 34.504 141 31.2556 141 27.175V1H147.604V26.6112C147.604 29.0811 148.248 30.9871 149.537 32.3294C150.826 33.6717 152.651 34.3429 155.014 34.3429C156.517 34.3429 157.859 34.0476 159.04 33.457C160.275 32.8127 161.349 32.0341 162.262 31.1214C163.39 29.9401 164.195 28.7589 164.678 27.5777C165.215 26.3964 165.484 24.7857 165.484 22.7454V1H172.088V45.8599C172.088 49.9405 171.068 53.0278 169.027 55.1218C167.041 57.2695 164.329 58.3433 160.893 58.3433ZM161.054 52.2224C162.611 52.2224 163.739 51.6318 164.437 50.4506C165.135 49.2693 165.484 47.7928 165.484 46.0209V35.9537C162.584 38.692 160.436 40.9202 159.04 42.6383C157.644 44.3565 156.946 46.182 156.946 48.1149C156.946 49.2962 157.322 50.2626 158.074 51.0143C158.826 51.8197 159.819 52.2224 161.054 52.2224Z" fill="white"/>
<path d="M14.4163 40.4302C11.8928 40.4302 9.53037 39.8127 7.32899 38.5778C5.12761 37.3429 3.35577 35.5442 2.01346 33.1818C0.671153 30.7656 0 27.8931 0 24.5642V0.966459H6.60415V24.242C6.60415 27.3561 7.35584 29.826 8.85922 31.6515C10.4163 33.4234 12.5908 34.3093 15.3828 34.3093C17.1009 34.3093 18.6312 34.0408 19.9735 33.5039C18.0943 30.9804 16.7251 27.9736 15.866 24.4836C15.0606 20.9936 14.6579 17.3425 14.6579 13.5304V12.4834C14.6579 10.4968 14.9801 8.64445 15.6244 6.9263C16.2687 5.15446 17.2889 3.73161 18.6849 2.65777C20.0809 1.53023 21.9332 0.966459 24.242 0.966459C26.5508 0.966459 28.4032 1.53023 29.7992 2.65777C31.1952 3.73161 32.2153 5.15446 32.8596 6.9263C33.5039 8.64445 33.8261 10.4968 33.8261 12.4834V13.5304C33.8261 17.3425 33.3965 20.9936 32.5375 24.4836C31.7321 27.9736 30.3898 30.9804 28.5105 33.5039C29.8528 34.0408 31.3831 34.3093 33.1012 34.3093C35.8932 34.3093 38.0409 33.4234 39.5443 31.6515C41.1014 29.826 41.8799 27.3561 41.8799 24.242V0.966459H48.484V24.5642C48.484 27.8931 47.8129 30.7656 46.4706 33.1818C45.1283 35.5442 43.3564 37.3429 41.1551 38.5778C38.9537 39.8127 36.5912 40.4302 34.0677 40.4302C32.0811 40.4302 30.2824 40.1886 28.6716 39.7054C27.0609 39.2221 25.5843 38.551 24.242 37.6919C22.8997 38.551 21.4232 39.2221 19.8124 39.7054C18.2016 40.1886 16.4029 40.4302 14.4163 40.4302ZM21.101 14.4969C21.101 17.7184 21.3158 20.6983 21.7453 23.4366C22.1749 26.1212 23.0071 28.3495 24.242 30.1213C25.4769 28.3495 26.3092 26.1212 26.7387 23.4366C27.1682 20.6983 27.383 17.7184 27.383 14.4969V12.3223C27.383 8.83237 26.336 7.08738 24.242 7.08738C22.148 7.08738 21.101 8.83237 21.101 12.3223V14.4969ZM87.4218 39.4637C87.4218 37.6382 87.2876 35.9201 87.0191 34.3093C86.8044 32.6448 86.4285 31.1415 85.8916 29.7991C84.7104 33.5576 82.7774 36.2691 80.0928 37.9335C77.4082 39.598 74.2941 40.4302 70.7504 40.4302C66.8308 40.4302 63.5825 39.3564 61.0052 37.2087C58.4817 35.061 57.2199 32.2153 57.2199 28.6716C57.2199 26.5239 57.7569 24.5373 58.8307 22.7118C59.9582 20.8325 61.6227 19.3292 63.8241 18.2016C66.0255 17.0204 68.7638 16.4298 72.039 16.4298C75.3142 16.4298 78.2136 16.8325 80.7371 17.6379V15.1412C80.7371 12.2955 80.0123 10.0941 78.5626 8.53707C77.1129 6.9263 75.0995 6.12091 72.5222 6.12091C70.2135 6.12091 68.3611 6.73837 66.9651 7.9733C65.5691 9.15453 64.6026 10.7921 64.0657 12.8861L58.0253 11.1948C58.777 8.08068 60.3878 5.44976 62.8576 3.30207C65.3275 1.10069 68.6027 0 72.6833 0C77.0324 0 80.4955 1.396 83.0727 4.18799C85.7037 6.9263 87.0191 10.6579 87.0191 15.3828V21.101C89.3279 23.0876 91.0192 25.638 92.093 28.7521C93.1669 31.8663 93.7038 35.4368 93.7038 39.4637H87.4218ZM63.8241 28.5911C63.8241 30.4166 64.4952 31.8394 65.8375 32.8596C67.1798 33.8261 68.8443 34.3093 70.8309 34.3093C73.9451 34.3093 76.3075 33.3697 77.9183 31.4904C79.5828 29.6112 80.4955 27.0877 80.6566 23.9198C78.4552 22.6849 75.6632 22.0675 72.2806 22.0675C69.2738 22.0675 67.0993 22.7386 65.757 24.0809C64.4684 25.4232 63.8241 26.9266 63.8241 28.5911ZM121.182 58.3097C118.014 58.3097 115.464 57.5043 113.531 55.8936C111.598 54.3365 110.631 52.162 110.631 49.37C110.631 47.3297 111.249 45.4773 112.484 43.8128C113.772 42.202 115.544 40.6181 117.799 39.0611C117.209 39.3832 116.403 39.6785 115.383 39.947C114.417 40.2691 113.558 40.4302 112.806 40.4302C109.37 40.4302 106.578 39.249 104.43 36.8865C102.336 34.4704 101.289 31.222 101.289 27.1414V0.966459H107.893V26.5776C107.893 29.0475 108.537 30.9535 109.826 32.2958C111.115 33.6381 112.94 34.3093 115.303 34.3093C116.806 34.3093 118.148 34.014 119.329 33.4234C120.564 32.7791 121.638 32.0005 122.551 31.0878C123.679 29.9065 124.484 28.7253 124.967 27.5441C125.504 26.3628 125.773 24.7521 125.773 22.7118V0.966459H132.377V45.8263C132.377 49.9069 131.357 52.9942 129.316 55.0882C127.33 57.2359 124.618 58.3097 121.182 58.3097ZM121.343 52.1888C122.9 52.1888 124.028 51.5982 124.726 50.417C125.424 49.2357 125.773 47.7592 125.773 45.9873V35.9201C122.873 38.6584 120.725 40.8866 119.329 42.6047C117.933 44.3229 117.235 46.1484 117.235 48.0813C117.235 49.2626 117.611 50.229 118.363 50.9807C119.115 51.7861 120.108 52.1888 121.343 52.1888Z" fill="white"/>
</svg>
