<svg width="164" height="58" viewBox="0 0 164 58" fill="none" xmlns="http://www.w3.org/2000/svg">
<path d="M115.893 57.3433C112.725 57.3433 110.175 56.5379 108.242 54.9272C106.309 53.3701 105.342 51.1956 105.342 48.4036C105.342 46.3633 105.96 44.5109 107.195 42.8464C108.483 41.2356 110.255 39.6517 112.51 38.0947C111.92 38.4168 111.114 38.7121 110.094 38.9806C109.128 39.3027 108.269 39.4638 107.517 39.4638C104.081 39.4638 101.289 38.2826 99.141 35.9201C97.047 33.504 96 30.2556 96 26.175V0H102.604V25.6112C102.604 28.0811 103.248 29.9871 104.537 31.3294C105.826 32.6717 107.651 33.3429 110.014 33.3429C111.517 33.3429 112.859 33.0476 114.04 32.457C115.275 31.8127 116.349 31.0341 117.262 30.1214C118.39 28.9401 119.195 27.7589 119.678 26.5777C120.215 25.3964 120.484 23.7857 120.484 21.7454V0H127.088V44.8599C127.088 48.9405 126.068 52.0278 124.027 54.1218C122.041 56.2695 119.329 57.3433 115.893 57.3433ZM116.054 51.2224C117.611 51.2224 118.739 50.6318 119.437 49.4506C120.135 48.2693 120.484 46.7928 120.484 45.0209V34.9537C117.584 37.692 115.436 39.9202 114.04 41.6383C112.644 43.3565 111.946 45.182 111.946 47.1149C111.946 48.2962 112.322 49.2626 113.074 50.0143C113.826 50.8197 114.819 51.2224 116.054 51.2224Z" fill="white"/>
<path d="M151.893 57.3433C148.725 57.3433 146.175 56.5379 144.242 54.9272C142.309 53.3701 141.342 51.1956 141.342 48.4036C141.342 46.3633 141.96 44.5109 143.195 42.8464C144.483 41.2356 146.255 39.6517 148.51 38.0947C147.92 38.4168 147.114 38.7121 146.094 38.9806C145.128 39.3027 144.269 39.4638 143.517 39.4638C140.081 39.4638 137.289 38.2826 135.141 35.9201C133.047 33.504 132 30.2556 132 26.175V0H138.604V25.6112C138.604 28.0811 139.248 29.9871 140.537 31.3294C141.826 32.6717 143.651 33.3429 146.014 33.3429C147.517 33.3429 148.859 33.0476 150.04 32.457C151.275 31.8127 152.349 31.0341 153.262 30.1214C154.39 28.9401 155.195 27.7589 155.678 26.5777C156.215 25.3964 156.484 23.7857 156.484 21.7454V0H163.088V44.8599C163.088 48.9405 162.068 52.0278 160.027 54.1218C158.041 56.2695 155.329 57.3433 151.893 57.3433ZM152.054 51.2224C153.611 51.2224 154.739 50.6318 155.437 49.4506C156.135 48.2693 156.484 46.7928 156.484 45.0209V34.9537C153.584 37.692 151.436 39.9202 150.04 41.6383C148.644 43.3565 147.946 45.182 147.946 47.1149C147.946 48.2962 148.322 49.2626 149.074 50.0143C149.826 50.8197 150.819 51.2224 152.054 51.2224Z" fill="white"/>
<path d="M64.6457 38.8748C57.8847 37.9984 52.0626 33.4286 53.0016 25.9791C54.0659 18.0915 61.5156 15.5249 68.4645 15.5249C72.2833 15.5249 75.9768 16.3387 79.6078 17.3403C78.8566 10.7673 75.0378 6.26003 68.2767 6.26003C63.7693 6.26003 59.0741 8.38844 55.3805 10.7047L52 5.44622C56.7578 2.44141 62.4546 0 68.1515 0C79.42 0 85.9933 8.63884 85.9307 19.4687C87.6835 20.0947 89.3738 20.7207 91.1267 21.4093L88.7478 27.2311C87.4331 26.7303 86.1185 26.2295 84.8038 25.7287C82.1745 33.2408 74.85 39 66.7742 39C66.0856 39 65.3344 38.9374 64.6457 38.8748ZM65.4596 32.6148C71.2816 33.366 76.9785 29.0466 78.9192 23.6629C75.476 22.6613 71.9077 21.8475 68.2767 21.8475C64.3953 21.8475 59.7627 22.7865 59.2619 26.7929C58.7611 30.6116 62.2668 32.2392 65.4596 32.6148Z" fill="white"/>
<path d="M23.3508 33.2459C20.8467 36.6263 17.967 38.5044 13.5848 38.5044C2.75452 38.5044 0 24.7323 0 16.2812C0 10.8976 0.000361383 6 0 0.5H6.13506C6.13506 5 6.13506 12.2122 6.13506 17.408C6.13506 21.9779 7.44972 32.7451 13.71 32.7451C16.9653 32.7451 18.7182 30.6793 20.2207 27.9875C18.3426 23.7307 16.6523 16.782 16.6523 12.1496C16.6523 7.705 18.4678 1.63277 23.8516 1.63277C28.4842 1.63277 30.5501 6.01479 30.5501 10.0212C30.5501 14.8414 29.0477 21.9779 26.4183 27.8623C28.1712 30.6167 30.4875 32.5573 33.4924 32.5573C40.1909 32.5573 40.7544 22.6039 40.7544 17.6584C40.7544 12.713 40.5 5.5 40.5 0.5H46.8894C46.8894 6 46.8894 11.774 46.8894 17.408C46.8894 25.5461 44.4479 38.3792 34.0559 38.3792C29.2981 38.3792 25.8549 36.3133 23.3508 33.2459ZM23.2882 20.4129C24.5403 16.469 25.2289 12.4626 25.2289 10.0838C25.2289 9.27 25.1037 6.89119 23.8516 6.89119C22.537 6.89119 21.9735 10.209 21.9735 11.2106C21.9735 13.5268 22.4118 16.9698 23.2882 20.4129Z" fill="white"/>
</svg>
